<svg height="512" viewBox="0 0 56 60" width="512" xmlns="http://www.w3.org/2000/svg"><g id="Page-1" fill="none" fill-rule="evenodd"><g id="032---Cup-Cake" fill-rule="nonzero" transform="translate(0 -1)"><path id="Shape" d="m50.12 27.99c-.0394323.0082848-.0797403.0116438-.12.01-1.2671077-.000844-2.3970531-.7977015-2.8232276-1.9909901-.4261745-1.1932887-.0566695-2.5256642.9232276-3.3290099-.9273347-1.8663869-2.1122447-3.5932585-3.52-5.13-1.2894447-1.3847591-2.7712683-2.5769536-4.4-3.54-2.2381365-1.3010099-4.695146-2.1821444-7.25-2.6-1.1173519 1.6216149-2.9607082 2.59005-4.93 2.59005s-3.8126481-.9684351-4.93-2.59005c-2.554854.4178556-5.0118635 1.2989901-7.25 2.6.1210941.3159206.18214.6516732.18.99 0 1.6568542-1.3431458 3-3 3-.5580355-.0017925-1.1047595-.157505-1.58-.45-1.4077553 1.5367415-2.59266531 3.2636131-3.52 5.13-.85441144 1.6957081-1.53133865 3.4751553-2.02 5.31-.27316998 1.0037994-.49017327 2.0220455-.65 3.05.71421222-.128194 1.44991864.0377006 2.04.46l1.31 1c.943164.6698591 2.206836.6698591 3.15 0l1.31-1c.943164-.6698591 2.206836-.6698591 3.15 0l1.31 1c.943164.6698591 2.206836.6698591 3.15 0l1.31-1c.9467686-.6700691 2.2132314-.6700691 3.16 0l1.3 1c.9467686.6700691 2.2132314.6700691 3.16 0l1.3-1c.9467686-.6700691 2.2132314-.6700691 3.16 0l1.31 1c.943164.6698591 2.206836.6698591 3.15 0l1.31-1c.943164-.6698591 2.206836-.6698591 3.15 0l1.31 1c.943164.6698591 2.206836.6698591 3.15 0l1.31-1c.5900814-.4222994 1.3257878-.588194 2.04-.46-.1598267-1.0279545-.37683-2.0462006-.65-3.05zm-31.12.01c-1.6568542 0-3-1.3431458-3-3s1.3431458-3 3-3 3 1.3431458 3 3-1.3431458 3-3 3zm18 0c-1.6568542 0-3-1.3431458-3-3s1.3431458-3 3-3 3 1.3431458 3 3-1.3431458 3-3 3z" fill="#a4c2f7"/><path id="Shape" d="m11.494 17.589c-.024-.014-.05-.025-.074-.039-.044.048-.082.1-.125.147.068-.033.133-.071.199-.108z" fill="#cad9fc"/><path id="Shape" d="m50.12 27.99c-.0394323.0082848-.0797403.0116438-.12.01-1.2671077-.000844-2.3970531-.7977015-2.8232276-1.9909901-.4261745-1.1932887-.0566695-2.5256642.9232276-3.3290099-.9273347-1.8663869-2.1122447-3.5932585-3.52-5.13-1.2894447-1.3847591-2.7712683-2.5769536-4.4-3.54-2.2381365-1.3010099-4.695146-2.1821444-7.25-2.6-.1447669.2095737-.3024033.4099591-.472.6 1.6514517.4665537 3.2378411 1.1384679 4.722 2 1.6287317.9630464 3.1105553 2.1552409 4.4 3.54 1.4077553 1.5367415 2.5926653 3.2636131 3.52 5.13-.9798971.8033457-1.3494021 2.1357212-.9232276 3.3290099.4261745 1.1932886 1.5561199 1.9901461 2.8232276 1.9909901.0402597.0016438.0805677-.0017152.12-.01.27317 1.0037994.4901733 2.0220455.65 3.05-.7142122-.128194-1.4499186.0377006-2.04.46l-1.31 1c-.023.018-.051.03-.075.047.9365051.6203349 2.157891.6016665 3.075-.047l1.31-1c.5900814-.4222994 1.3257878-.588194 2.04-.46-.1598267-1.0279545-.37683-2.0462006-.65-3.05z" fill="#7facfa"/><path id="Shape" d="m34 8c.0044594 1.21995375-.3693628 2.4112936-1.07 3.41-1.1173519 1.6216149-2.9607082 2.59005-4.93 2.59005s-3.8126481-.9684351-4.93-2.59005c-.7006372-.9987064-1.0744594-2.19004625-1.07-3.41 0-3.3137085 2.6862915-6 6-6s6 2.6862915 6 6z" fill="#e8edfc"/><path id="Shape" d="m28 2c-.5064496.00291083-1.0104803.07011491-1.5.2 2.6456983.68311274 4.4956841 3.06753882 4.5 5.8.0044594 1.21995375-.3693628 2.4112936-1.07 3.41-.8163693 1.1875859-2.034578 2.0399769-3.43 2.4 2.4345735.6280057 5.002308-.3304022 6.43-2.4.7006372-.9987064 1.0744594-2.19004625 1.07-3.41 0-1.59129894-.632141-3.11742242-1.7573593-4.24264069s-2.6513418-1.75735931-4.2426407-1.75735931z" fill="#cad9fc"/><g fill="#e8edfc"><path id="Shape" d="m16 15c0 1.6568542-1.3431458 3-3 3-.5580355-.0017925-1.1047595-.157505-1.58-.45-1.1280711-.6895952-1.67169414-2.0363956-1.3384118-3.315852.3332824-1.2794565 1.4648845-2.1898818 2.786029-2.241487s2.5203145.7677779 2.9523828 2.017339c.1210941.3159206.18214.6516732.18.99z"/><circle id="Oval" cx="19" cy="25" r="3"/><path id="Shape" d="m7.9 22.68c-.85441144 1.6957081-1.53133865 3.4751553-2.02 5.31-1.30861118-.04724-2.43539403-.937784-2.78369924-2.2000749-.3483052-1.2622909.16234917-2.6046546 1.26156355-3.3162883 1.09921439-.7116338 2.53299636-.6281023 3.54213569.2063632z"/><path id="Shape" d="m46 15c-.0000747 1.0384816-.5372159 2.0030663-1.42 2.55-1.2894447-1.3847591-2.7712683-2.5769536-4.4-3.54.480116-1.3809198 1.8876184-2.2128959 3.3289174-1.9677265s2.4945558 1.4957283 2.4910826 2.9577265z"/><circle id="Oval" cx="37" cy="25" r="3"/><path id="Shape" d="m53 25c.0010894 1.6093104-1.2717786 2.930795-2.88 2.99-.0394323.0082848-.0797403.0116438-.12.01-1.6568542 0-3-1.3431458-3-3s1.3431458-3 3-3 3 1.3431458 3 3z"/><path id="Shape" d="m54.13 32.81c-2.13 2.18-7.46 8.86-8.07 21.73-.0726309 1.67815-1.1814901 3.1340263-2.78 3.65-2.59.84-7.32 1.81-15.28 1.81s-12.69-.97-15.28-1.81c-1.5985099-.5159737-2.7073691-1.97185-2.78-3.65-.61-12.87-5.94-19.55-8.07-21.73.33604048-.0140415.66153183-.1213844.94-.31l1.3-1c.32713937-.2478401.71310001-.4063597 1.12-.46.71421222-.128194 1.44991864.0377006 2.04.46l1.31 1c.943164.6698591 2.206836.6698591 3.15 0l1.31-1c.943164-.6698591 2.206836-.6698591 3.15 0l1.31 1c.943164.6698591 2.206836.6698591 3.15 0l1.31-1c.9467686-.6700691 2.2132314-.6700691 3.16 0l1.3 1c.9467686.6700691 2.2132314.6700691 3.16 0l1.3-1c.9467686-.6700691 2.2132314-.6700691 3.16 0l1.31 1c.943164.6698591 2.206836.6698591 3.15 0l1.31-1c.943164-.6698591 2.206836-.6698591 3.15 0l1.31 1c.943164.6698591 2.206836.6698591 3.15 0l1.31-1c.5900814-.4222994 1.3257878-.588194 2.04-.46.4069.0536403.7928606.2121599 1.12.46l1.3 1c.2784682.1886156.6039595.2959585.94.31z"/></g><path id="Shape" d="m53.19 32.5-1.3-1c-.3271394-.2478401-.7131-.4063597-1.12-.46-.6824442-.1189987-1.3845196.0288631-1.961.413.025.019.056.028.081.047l1.3 1c.2784682.1886156.6039595.2959585.94.31-2.13 2.18-7.46 8.86-8.07 21.73-.0726309 1.67815-1.1814901 3.1340263-2.78 3.65-2.423.786-6.719 1.685-13.78 1.8.487.008.986.012 1.5.012 7.96 0 12.69-.97 15.28-1.81 1.5985099-.5159737 2.7073691-1.97185 2.78-3.65.61-12.87 5.94-19.55 8.07-21.73-.3362373-.014635-.6617447-.1226757-.94-.312z" fill="#cad9fc"/><path id="Shape" d="m12.72 58.19c4.059 1.316 10.54 1.918 16.816 1.8-4.6653791.0249173-9.3127406-.5805583-13.816-1.8-1.5985099-.5159737-2.7073691-1.97185-2.78-3.65-.61-12.87-5.94-19.55-8.07-21.73.33604048-.0140415.66153183-.1213844.94-.31 1.254-.965 1.563-1.335 2.42-1.46.15982673-1.0279545.37683002-2.0462006.65-3.05-1.60822136-.059205-2.88108942-1.3806896-2.88-2.99-.01135016-1.0732238.56381897-2.067116 1.5-2.592-1.07914607-.6369843-2.44052709-.5361157-3.4140128.2529539-.9734857.7890695-1.35396728 2.1000869-.95415533 3.287713.39981195 1.187626 1.49567894 2.0016336 2.74816813 2.0413331-.27316998 1.0037994-.49017327 2.0220455-.65 3.05-.857.125-1.166.5-2.42 1.46-.27846817.1886156-.60395952.2959585-.94.31 2.13 2.18 7.46 8.86 8.07 21.73.0726309 1.67815 1.1814901 3.1340263 2.78 3.65z" fill="#fff"/><path id="Shape" d="m14.481 12.4c-.4499556-.2611208-.9607661-.3990844-1.481-.4-1.340371.0001555-2.5180063.8894346-2.8850072 2.1785835-.36700098 1.2891489.1656918 2.6653323 1.3050072 3.3714165-1.261433 1.3785328-2.34151581 2.9126267-3.214 4.565.93636088-.263585 1.9424426-.0525842 2.694.565.9273347-1.8663869 2.1122447-3.5932585 3.52-5.13-.8915407-.5581101-1.4279196-1.5403777-1.415462-2.5921269.0124576-1.0517493.5719521-2.0210366 1.476462-2.5578731z" fill="#fff"/><path id="Shape" d="m7.883 46.853 1.947-.453c.6078314 2.6620089.978945 5.372577 1.109 8.1l-2 .094c-.12333677-2.6063975-.47671062-5.1968019-1.056-7.741z" fill="#fff"/><path id="Shape" d="m15 25c0 2.209139 1.790861 4 4 4s4-1.790861 4-4-1.790861-4-4-4-4 1.790861-4 4zm4-2c1.1045695 0 2 .8954305 2 2s-.8954305 2-2 2-2-.8954305-2-2 .8954305-2 2-2z" fill="#428dff"/><path id="Shape" d="m37 29c2.209139 0 4-1.790861 4-4s-1.790861-4-4-4-4 1.790861-4 4 1.790861 4 4 4zm0-6c1.1045695 0 2 .8954305 2 2s-.8954305 2-2 2-2-.8954305-2-2 .8954305-2 2-2z" fill="#428dff"/><path id="Shape" d="m9.594 51.556c-.55228473.0027614-1.00223852-.4427153-1.00499994-.995-.00276143-.5522847.44271521-1.0022385.99499994-1.005h.01c.5522847 0 1 .4477153 1 1s-.4477153 1-1 1z" fill="#428dff"/><path id="Shape" d="m3.5 30.708-1.29.992c-.12787141.0742335-.27314313.1132256-.421.113-.26445851.0216533-.50946898.1475246-.68108405.3498991s-.25576307.4646583-.23391595.7291009c.02187322.2305431.12460009.4459153.29.608l-.009.009c3.37379856 3.7812024 5.69403933 8.3830592 6.728 13.344.12966835.5306608.65776474.8620501 1.192.748.26071821-.056433.48772157-.2154906.62977774-.4412753.14205618-.2257846.18719253-.4992669.12522226-.7587247-1.03834206-4.8316487-3.19429163-9.3528068-6.295-13.201l1.18-.908c.58823401-.3983658 1.35976599-.3983658 1.948 0l1.307 1c1.30322821.9421244 3.0637718.9421244 4.367 0l1.313-1c.5830511-.3974228 1.3499489-.3974228 1.933 0l1.307 1c1.3031272.9424364 3.0638728.9424364 4.367 0l1.313-1c.5863358-.3950389 1.3536642-.3950389 1.94 0l1.3 1c1.3067948.9458954 3.0732052.9458954 4.38 0l1.3-1c.5880077-.3979145 1.3589923-.3979145 1.947 0l1.307 1c1.3031272.9424364 3.0638728.9424364 4.367 0l1.313-1c.5830511-.3974228 1.3499489-.3974228 1.933 0l1.307 1c1.3032282.9421244 3.0637718.9421244 4.367 0l1.313-1c.5865031-.394491 1.3534969-.394491 1.94 0l1.161.894c-2.588 3.069-6.834 9.794-7.38 21.306-.0573236 1.2609896-.8891671 2.3548499-2.089 2.747-2.482.803-7.092 1.761-14.976 1.761s-12.494-.958-14.977-1.763c-1.1977272-.3928481-2.0274648-1.4857606-2.084-2.745-.0276142-.5522847-.4977153-.9776142-1.05-.95-.55228475.0276142-.97761424.4977153-.95 1.05.09888141 2.0910238 1.4800333 3.9032383 3.47 4.553 2.618.844 7.445 1.855 15.591 1.855s12.973-1.011 15.584-1.857c1.9927501-.6487026 3.3763008-2.4626471 3.475-4.556.589-12.434 5.641-18.887 7.786-21.078.2737323-.2769331.3618206-.6875768.2257569-1.0524164s-.4715334-.6175211-.8597569-.6475836c-.1435228-.0008811-.2846414-.0369333-.411-.105l-1.3-1c-.2614731-.1930829-.5498832-.3467219-.856-.456-.09-.5053333-.192-1.0033333-.306-1.494 1.3315289-.5092821 2.2902135-1.6902404 2.5149267-3.0980192.2247132-1.4077789-.3186844-2.8285032-1.4255-3.727-1.1068157-.8984968-2.6088978-1.1382629-3.9404267-.6289808-.7149831-1.2930096-1.552137-2.5145846-2.5-3.648.9810895-1.1016432 1.2746758-2.6545432.7634709-4.0383148-.5112048-1.3837716-1.7438643-2.3728327-3.2055297-2.5720524-1.4616655-.1992196-2.9140564.4238789-3.7769412 1.6203672-1.6815627-.8734009-3.4681109-1.5277292-5.316-1.947 1.2352984-2.92947024.3412647-6.32351076-2.1769137-8.26426721-2.5181784-1.94075646-6.0279942-1.94075646-8.5461726 0-2.5181784 1.94075645-3.4122121 5.33479697-2.1769137 8.26426721-1.8480273.4198846-3.6348294 1.0741828-5.317 1.947-.859297-1.1999394-2.3112943-1.8268566-3.7739188-1.6294347-1.4626246.1974219-2.69644891 1.1868656-3.2068607 2.5716853-.51041178 1.3848198-.21385805 2.9383246.7707795 4.0377494-.95333324 1.1391298-1.7951893 2.3670877-2.514 3.667-1.33007895-.5118915-2.83230206-.27411-3.93927075.6235332-1.1069687.8976432-1.64996689 2.3183357-1.42390096 3.7254737.22606594 1.4071379 1.18674069 2.5862555 2.51917171 3.0919931-.11533333.4926667-.21766667.9926667-.307 1.5-.30760725.109595-.59738636.2639192-.86.458zm48.5-5.708c0 1.1045695-.8954305 2-2 2s-2-.8954305-2-2 .8954305-2 2-2 2 .8954305 2 2zm-7-10c-.0036463.4207353-.141699.829287-.394 1.166-.9461033-.9240126-1.9781006-1.7557716-3.082-2.484.3707019-.4294505.9086977-.6780366 1.476-.682 1.1045695 0 2 .8954305 2 2zm-17-12c2.7614237 0 5 2.23857625 5 5 0 2.7614237-2.2385763 5-5 5s-5-2.2385763-5-5c.0033061-2.76005315 2.2399468-4.99669388 5-5zm-5.336 9.52c1.3264273 1.572403 3.2788513 2.4797263 5.336 2.4797263s4.0095727-.9073233 5.336-2.4797263c2.2298658.4221236 4.3725776 1.2172732 6.338 2.352 1.5435364.9144686 2.9484146 2.0449038 4.172 3.357 1.1872891 1.3004982 2.2062867 2.7451701 3.033 4.3-.5653791.6997947-.8754177 1.5713593-.879 2.471.005235 1.9426961 1.4055735 3.6007475 3.32 3.931.092.378.179.758.256 1.147-.5268211.0920967-1.0245727.306887-1.453.627l-1.313 1c-.5832235.3968631-1.3497765.3968631-1.933 0l-1.307-1c-1.3032282-.9421244-3.0637718-.9421244-4.367 0l-1.313 1c-.5832235.3968631-1.3497765.3968631-1.933 0l-1.307-1c-1.3084015-.9409226-3.0715985-.9409226-4.38 0l-1.3 1c-.5877341.3904343-1.3522659.3904343-1.94 0l-1.3-1c-1.3068064-.9378784-3.0661936-.9378784-4.373 0l-1.313 1c-.5833095.3965839-1.3496905.3965839-1.933 0l-1.307-1c-1.3032282-.9421244-3.0637718-.9421244-4.367 0l-1.313 1c-.5832235.3968631-1.34977646.3968631-1.933 0l-1.307-1c-.42933852-.3210577-.92804929-.536846-1.456-.63.123-.62.259-1.234.422-1.828.47060982-1.7695928 1.12308509-3.4857335 1.947-5.121.78499131-1.5681572 1.7588931-3.0343831 2.9-4.366.4177734.1526065.8582707.2337419 1.303.24 2.209139 0 4-1.790861 4-4-.0066576-.1534139-.0220156-.3063264-.046-.458 1.791922-.9548125 3.71653-1.6363462 5.71-2.022zm-9.664.48c1.1045695 0 2 .8954305 2 2s-.8954305 2-2 2-2-.8954305-2-2 .8954305-2 2-2zm-9 12c0-1.1045695.8954305-2 2-2 .20205779.0015355.40257713.035293.594.1-.55613512 1.2057348-1.02760944 2.448743-1.411 3.72-.72084679-.3178184-1.18519695-1.0322032-1.183-1.82z" fill="#428dff"/><path id="Shape" d="m18 55c.5522847 0 1-.4477153 1-1 0-9.989-5.058-15.458-5.273-15.687-.2454415-.2597321-.6108041-.368793-.9584595-.2861005-.3476553.0826925-.6247861.3445754-.727.687-.1022138.3424246-.013982.7133684.2314595.9731005.047.05 4.727 5.113 4.727 14.313 0 .5522847.4477153 1 1 1z" fill="#428dff"/><path id="Shape" d="m39 54c0-9.128 4.656-14.236 4.728-14.314.3791434-.4017872.3607871-1.0348565-.0410001-1.4139999-.4017871-.3791435-1.0348564-.3607872-1.4139999.0409999-.215.229-5.273 5.698-5.273 15.687 0 .5522847.4477153 1 1 1s1-.4477153 1-1z" fill="#428dff"/><path id="Shape" d="m29 54v-15c0-.5522847-.4477153-1-1-1s-1 .4477153-1 1v15c0 .5522847.4477153 1 1 1s1-.4477153 1-1z" fill="#428dff"/></g></g></svg>